<mxfile host="app.diagrams.net" agent="Mozilla/5.0 (Windows NT 10.0; Win64; x64) AppleWebKit/537.36 (KHTML, like Gecko) Chrome/135.0.0.0 Safari/537.36 Edg/135.0.0.0" version="26.2.15">
  <diagram name="第 1 页" id="3JSs4MN5bHzwzL3MK9mN">
    <mxGraphModel dx="2940" dy="1637" grid="1" gridSize="10" guides="1" tooltips="1" connect="1" arrows="1" fold="1" page="1" pageScale="1" pageWidth="1200" pageHeight="1600" math="0" shadow="0">
      <root>
        <mxCell id="0" />
        <mxCell id="1" parent="0" />
        <mxCell id="RmGULRWr54-7OMC-13Zr-1" value="开始" style="whiteSpace=wrap;strokeWidth=2;" vertex="1" parent="1">
          <mxGeometry x="468" y="20" width="92" height="54" as="geometry" />
        </mxCell>
        <mxCell id="RmGULRWr54-7OMC-13Zr-2" value="用户填写用户名、密码、确认密码和邮箱地址" style="whiteSpace=wrap;strokeWidth=2;" vertex="1" parent="1">
          <mxGeometry x="384" y="124" width="260" height="78" as="geometry" />
        </mxCell>
        <mxCell id="RmGULRWr54-7OMC-13Zr-3" value="后台接收注册信息" style="whiteSpace=wrap;strokeWidth=2;" vertex="1" parent="1">
          <mxGeometry x="420" y="252" width="188" height="54" as="geometry" />
        </mxCell>
        <mxCell id="RmGULRWr54-7OMC-13Zr-4" value="用户名是否已存在" style="rhombus;strokeWidth=2;whiteSpace=wrap;" vertex="1" parent="1">
          <mxGeometry x="434" y="356" width="159" height="154" as="geometry" />
        </mxCell>
        <mxCell id="RmGULRWr54-7OMC-13Zr-26" style="edgeStyle=orthogonalEdgeStyle;rounded=0;orthogonalLoop=1;jettySize=auto;html=1;exitX=0.5;exitY=1;exitDx=0;exitDy=0;entryX=0;entryY=0.5;entryDx=0;entryDy=0;" edge="1" parent="1" source="RmGULRWr54-7OMC-13Zr-5" target="RmGULRWr54-7OMC-13Zr-2">
          <mxGeometry relative="1" as="geometry">
            <Array as="points">
              <mxPoint x="360" y="640" />
              <mxPoint x="150" y="640" />
              <mxPoint x="150" y="163" />
            </Array>
          </mxGeometry>
        </mxCell>
        <mxCell id="RmGULRWr54-7OMC-13Zr-5" value="返回提示信息，要求更换用户名" style="whiteSpace=wrap;strokeWidth=2;" vertex="1" parent="1">
          <mxGeometry x="260" y="573" width="200" height="47" as="geometry" />
        </mxCell>
        <mxCell id="RmGULRWr54-7OMC-13Zr-6" value="邮箱是否已存在" style="rhombus;strokeWidth=2;whiteSpace=wrap;" vertex="1" parent="1">
          <mxGeometry x="562" y="507" width="166" height="166" as="geometry" />
        </mxCell>
        <mxCell id="RmGULRWr54-7OMC-13Zr-27" style="edgeStyle=orthogonalEdgeStyle;rounded=0;orthogonalLoop=1;jettySize=auto;html=1;exitX=0.5;exitY=1;exitDx=0;exitDy=0;entryX=0;entryY=0.5;entryDx=0;entryDy=0;" edge="1" parent="1" source="RmGULRWr54-7OMC-13Zr-7" target="RmGULRWr54-7OMC-13Zr-2">
          <mxGeometry relative="1" as="geometry">
            <mxPoint x="380" y="163" as="targetPoint" />
            <mxPoint x="513.5" y="773" as="sourcePoint" />
            <Array as="points">
              <mxPoint x="514" y="793" />
              <mxPoint x="150" y="793" />
              <mxPoint x="150" y="163" />
            </Array>
          </mxGeometry>
        </mxCell>
        <mxCell id="RmGULRWr54-7OMC-13Zr-7" value="返回提示信息，要求更换邮箱" style="whiteSpace=wrap;strokeWidth=2;" vertex="1" parent="1">
          <mxGeometry x="427.5" y="730" width="172" height="40" as="geometry" />
        </mxCell>
        <mxCell id="RmGULRWr54-7OMC-13Zr-8" value="密码与确认密码是否一致" style="rhombus;strokeWidth=2;whiteSpace=wrap;" vertex="1" parent="1">
          <mxGeometry x="678" y="850" width="164" height="170" as="geometry" />
        </mxCell>
        <mxCell id="RmGULRWr54-7OMC-13Zr-28" style="edgeStyle=orthogonalEdgeStyle;rounded=0;orthogonalLoop=1;jettySize=auto;html=1;exitX=0.5;exitY=1;exitDx=0;exitDy=0;entryX=0;entryY=0.5;entryDx=0;entryDy=0;" edge="1" parent="1" source="RmGULRWr54-7OMC-13Zr-9" target="RmGULRWr54-7OMC-13Zr-2">
          <mxGeometry relative="1" as="geometry">
            <Array as="points">
              <mxPoint x="636" y="1080" />
              <mxPoint x="150" y="1080" />
              <mxPoint x="150" y="163" />
            </Array>
          </mxGeometry>
        </mxCell>
        <mxCell id="RmGULRWr54-7OMC-13Zr-9" value="提示用户重新输入密码" style="whiteSpace=wrap;strokeWidth=2;" vertex="1" parent="1">
          <mxGeometry x="544" y="1020" width="184" height="40" as="geometry" />
        </mxCell>
        <mxCell id="RmGULRWr54-7OMC-13Zr-10" value="使用bcrypt算法对密码进行加密" style="whiteSpace=wrap;strokeWidth=2;" vertex="1" parent="1">
          <mxGeometry x="808" y="1020" width="184" height="40" as="geometry" />
        </mxCell>
        <mxCell id="RmGULRWr54-7OMC-13Zr-11" value="将加密后的密码及用户信息存入Users表" style="whiteSpace=wrap;strokeWidth=2;" vertex="1" parent="1">
          <mxGeometry x="789" y="1100" width="222" height="37" as="geometry" />
        </mxCell>
        <mxCell id="RmGULRWr54-7OMC-13Zr-12" value="结束" style="whiteSpace=wrap;strokeWidth=2;" vertex="1" parent="1">
          <mxGeometry x="854" y="1180" width="92" height="54" as="geometry" />
        </mxCell>
        <mxCell id="RmGULRWr54-7OMC-13Zr-13" value="" style="startArrow=none;endArrow=block;exitX=0.49;exitY=1;entryX=0.5;entryY=0;rounded=0;edgeStyle=orthogonalEdgeStyle;" edge="1" parent="1" source="RmGULRWr54-7OMC-13Zr-1" target="RmGULRWr54-7OMC-13Zr-2">
          <mxGeometry relative="1" as="geometry" />
        </mxCell>
        <mxCell id="RmGULRWr54-7OMC-13Zr-14" value="" style="startArrow=none;endArrow=block;exitX=0.5;exitY=1;entryX=0.5;entryY=0;rounded=0;edgeStyle=orthogonalEdgeStyle;" edge="1" parent="1" source="RmGULRWr54-7OMC-13Zr-2" target="RmGULRWr54-7OMC-13Zr-3">
          <mxGeometry relative="1" as="geometry" />
        </mxCell>
        <mxCell id="RmGULRWr54-7OMC-13Zr-15" value="" style="startArrow=none;endArrow=block;exitX=0.5;exitY=1;entryX=0.5;entryY=0;rounded=0;edgeStyle=orthogonalEdgeStyle;" edge="1" parent="1" source="RmGULRWr54-7OMC-13Zr-3" target="RmGULRWr54-7OMC-13Zr-4">
          <mxGeometry relative="1" as="geometry" />
        </mxCell>
        <mxCell id="RmGULRWr54-7OMC-13Zr-16" value="是" style="startArrow=none;endArrow=block;exitX=0;exitY=0.5;entryX=0.5;entryY=0;rounded=0;edgeStyle=orthogonalEdgeStyle;exitDx=0;exitDy=0;" edge="1" parent="1" source="RmGULRWr54-7OMC-13Zr-4" target="RmGULRWr54-7OMC-13Zr-5">
          <mxGeometry relative="1" as="geometry" />
        </mxCell>
        <mxCell id="RmGULRWr54-7OMC-13Zr-17" value="" style="startArrow=none;endArrow=block;exitX=1;exitY=0.5;entryX=0.5;entryY=0;rounded=0;edgeStyle=orthogonalEdgeStyle;exitDx=0;exitDy=0;" edge="1" parent="1" source="RmGULRWr54-7OMC-13Zr-4" target="RmGULRWr54-7OMC-13Zr-6">
          <mxGeometry relative="1" as="geometry" />
        </mxCell>
        <mxCell id="RmGULRWr54-7OMC-13Zr-24" value="否" style="edgeLabel;html=1;align=center;verticalAlign=middle;resizable=0;points=[];" vertex="1" connectable="0" parent="RmGULRWr54-7OMC-13Zr-17">
          <mxGeometry x="0.381" relative="1" as="geometry">
            <mxPoint as="offset" />
          </mxGeometry>
        </mxCell>
        <mxCell id="RmGULRWr54-7OMC-13Zr-18" value="是" style="startArrow=none;endArrow=block;exitX=0;exitY=0.5;entryX=0.5;entryY=0;rounded=0;edgeStyle=orthogonalEdgeStyle;exitDx=0;exitDy=0;" edge="1" parent="1" source="RmGULRWr54-7OMC-13Zr-6" target="RmGULRWr54-7OMC-13Zr-7">
          <mxGeometry relative="1" as="geometry" />
        </mxCell>
        <mxCell id="RmGULRWr54-7OMC-13Zr-19" value="否" style="startArrow=none;endArrow=block;exitX=1;exitY=0.5;entryX=0.5;entryY=0;rounded=0;edgeStyle=orthogonalEdgeStyle;exitDx=0;exitDy=0;" edge="1" parent="1" source="RmGULRWr54-7OMC-13Zr-6" target="RmGULRWr54-7OMC-13Zr-8">
          <mxGeometry relative="1" as="geometry" />
        </mxCell>
        <mxCell id="RmGULRWr54-7OMC-13Zr-20" value="否" style="startArrow=none;endArrow=block;exitX=0;exitY=0.5;entryX=0.5;entryY=0;rounded=0;edgeStyle=orthogonalEdgeStyle;exitDx=0;exitDy=0;" edge="1" parent="1" source="RmGULRWr54-7OMC-13Zr-8" target="RmGULRWr54-7OMC-13Zr-9">
          <mxGeometry relative="1" as="geometry" />
        </mxCell>
        <mxCell id="RmGULRWr54-7OMC-13Zr-21" value="是" style="startArrow=none;endArrow=block;exitX=1;exitY=0.5;entryX=0.5;entryY=0;rounded=0;edgeStyle=orthogonalEdgeStyle;exitDx=0;exitDy=0;" edge="1" parent="1" source="RmGULRWr54-7OMC-13Zr-8" target="RmGULRWr54-7OMC-13Zr-10">
          <mxGeometry relative="1" as="geometry" />
        </mxCell>
        <mxCell id="RmGULRWr54-7OMC-13Zr-22" value="" style="startArrow=none;endArrow=block;exitX=0.5;exitY=1;entryX=0.5;entryY=0;rounded=0;edgeStyle=orthogonalEdgeStyle;" edge="1" parent="1" source="RmGULRWr54-7OMC-13Zr-10" target="RmGULRWr54-7OMC-13Zr-11">
          <mxGeometry relative="1" as="geometry" />
        </mxCell>
        <mxCell id="RmGULRWr54-7OMC-13Zr-23" value="" style="startArrow=none;endArrow=block;exitX=0.5;exitY=1;entryX=0.49;entryY=0;rounded=0;edgeStyle=orthogonalEdgeStyle;" edge="1" parent="1" source="RmGULRWr54-7OMC-13Zr-11" target="RmGULRWr54-7OMC-13Zr-12">
          <mxGeometry relative="1" as="geometry" />
        </mxCell>
      </root>
    </mxGraphModel>
  </diagram>
</mxfile>
